<svg width="710" height="438" viewBox="0 0 710 438" fill="none" xmlns="http://www.w3.org/2000/svg">
<path opacity="0.025" d="M527.47 189.897H232.642C216.853 189.897 201.71 183.624 190.545 172.459C179.38 161.294 173.107 146.151 173.107 130.362C173.107 114.572 179.38 99.4292 190.545 88.2642C201.71 77.0992 216.853 70.8268 232.642 70.8268H561.124L523.75 14.8247L232.642 15.7427C202.244 15.7427 173.09 27.8186 151.595 49.3138C130.099 70.8091 118.023 99.9629 118.023 130.362C118.023 160.761 130.099 189.914 151.595 211.41C173.09 232.905 202.244 244.981 232.642 244.981H527.47C543.26 244.981 558.403 251.253 569.568 262.418C580.733 273.583 587.005 288.726 587.005 304.516C587.005 320.305 580.733 335.448 569.568 346.613C558.403 357.778 543.26 364.051 527.47 364.051H220.808L129.001 419.135H527.47C557.869 419.135 587.023 407.059 608.518 385.564C630.013 364.068 642.089 334.915 642.089 304.516C642.089 274.117 630.013 244.963 608.518 223.468C587.023 201.973 557.869 189.897 527.47 189.897Z" fill="white" stroke="url(#paint0_linear)" stroke-miterlimit="10"/>
<path d="M465.489 244.981H502.223" stroke="#709BFF" stroke-width="0.75" stroke-miterlimit="10"/>
<path d="M79.0163 344H44.0005C41.6503 344.014 39.389 343.101 37.7055 341.46C36.022 339.819 35.0515 337.58 35.0039 335.229C34.9368 333.021 35.7463 330.876 37.2554 329.263C38.7644 327.651 40.8502 326.702 43.0564 326.624C43.4423 324.165 44.7098 321.931 46.6219 320.339C48.534 318.747 50.9599 317.906 53.4463 317.974C55.5598 317.902 57.6411 318.507 59.3878 319.7C59.6106 316.4 61.0259 313.294 63.3694 310.961C65.7129 308.629 68.8244 307.23 72.123 307.026C75.4216 306.822 78.6818 307.826 81.2948 309.851C83.9079 311.876 85.6952 314.784 86.323 318.031L85.0985 318.274C84.5072 315.224 82.7921 312.508 80.2933 310.664C77.7946 308.821 74.6948 307.985 71.6088 308.322C68.5229 308.659 65.6762 310.144 63.6334 312.484C61.5907 314.823 60.5011 317.845 60.5809 320.951L59.9588 321.597L59.7071 321.339L59.5397 321.415C57.8725 319.916 55.6856 319.129 53.4463 319.222C51.1735 319.159 48.9606 319.957 47.2499 321.456C45.5393 322.955 44.4569 325.045 44.219 327.308L43.5993 327.858C42.6194 327.842 41.6461 328.02 40.7361 328.385C39.8261 328.749 38.9978 329.291 38.2996 329.979C37.6276 330.672 37.1004 331.493 36.7489 332.392C36.3974 333.292 36.2285 334.252 36.2523 335.218C36.2964 337.241 37.1339 339.165 38.5838 340.574C40.0337 341.984 41.9796 342.766 44.001 342.751H79.0167L79.0163 344Z" fill="#709BFF"/>
<path d="M88.6147 342.751H84.0617V344H88.6147V342.751Z" fill="#709BFF"/>
<path d="M99.4667 344H93.7204V342.751H99.4664C101.663 342.748 103.769 341.874 105.322 340.319C106.876 338.765 107.749 336.657 107.752 334.459C107.667 332.216 106.711 330.096 105.087 328.548C103.463 327.001 101.301 326.148 99.0585 326.172L98.4365 325.595C98.1844 323.477 97.1605 321.527 95.561 320.118C93.9615 318.709 91.8988 317.94 89.768 317.959C88.413 317.958 87.0786 318.291 85.8817 318.926C84.6849 319.562 83.6622 320.482 82.9033 321.606L81.8701 320.905C82.7433 319.613 83.92 318.554 85.2969 317.823C86.6738 317.091 88.209 316.709 89.7679 316.71C92.1147 316.702 94.389 317.523 96.1907 319.028C97.9925 320.533 99.2062 322.626 99.6185 324.938C102.091 325.056 104.429 326.1 106.167 327.864C107.905 329.628 108.917 331.982 109 334.458C108.997 336.988 107.992 339.413 106.205 341.202C104.418 342.991 101.994 343.997 99.4667 344Z" fill="#709BFF"/>
<path d="M27.8082 288.63C27.4688 286.917 26.4995 285.393 25.0913 284.358C23.683 283.324 21.938 282.853 20.1999 283.04C18.4619 283.227 16.8568 284.057 15.701 285.367C14.5452 286.677 13.9224 288.372 13.9554 290.118C13.9547 290.078 13.9554 290.158 13.9554 290.118C13.0021 289.262 11.7524 288.811 10.4718 288.861C9.17404 288.828 7.91142 289.284 6.93512 290.139C5.95881 290.994 5.34038 292.184 5.20286 293.474C4.63768 293.457 4.07508 293.556 3.54966 293.765C3.02424 293.974 2.54711 294.287 2.14759 294.687C1.74808 295.087 1.43464 295.564 1.22655 296.089C1.01845 296.614 0.920086 297.177 0.937518 297.741C0.961953 298.909 1.44564 300.021 2.28401 300.836C3.12238 301.65 4.24806 302.103 5.41768 302.095H35.0959C36.3602 302.095 37.5728 301.593 38.4668 300.7C39.3608 299.807 39.8631 298.596 39.8631 297.333C39.8134 296.048 39.2653 294.833 38.3348 293.945C37.4044 293.056 36.1644 292.564 34.8774 292.573C34.7335 291.359 34.1471 290.241 33.2301 289.432C32.313 288.622 31.1297 288.179 29.9062 288.186C29.1832 288.183 28.4679 288.334 27.8082 288.63Z" fill="#38363F"/>
<path d="M521.947 244.981H527.469C538.2 244.989 548.729 247.894 557.946 253.389C567.162 258.885 574.723 266.768 579.831 276.204" stroke="#709BFF" stroke-width="0.75" stroke-miterlimit="10"/>
<path d="M494.384 364.051H381.063" stroke="#709BFF" stroke-width="0.75" stroke-miterlimit="10"/>
<path d="M625.926 245.882C615.765 228.826 601.35 214.699 584.092 204.886C566.833 195.072 547.323 189.907 527.469 189.897H503.532" stroke="#709BFF" stroke-width="0.75" stroke-miterlimit="10"/>
<path d="M312.319 189.897H274.255" stroke="#709BFF" stroke-width="0.75" stroke-miterlimit="10"/>
<path d="M150.512 50.489C133.588 67.8535 122.617 90.1441 119.179 114.146C115.742 138.149 120.017 162.623 131.387 184.039" stroke="#709BFF" stroke-width="0.75" stroke-miterlimit="10"/>
<path d="M169.274 225.831C188.037 238.344 210.089 245.008 232.641 244.981H309.425" stroke="#709BFF" stroke-width="0.75" stroke-miterlimit="10"/>
<path d="M222 433H558.953C611.446 433 654 387.557 654 331.5C654 275.443 611.446 230 558.953 230H456.214" stroke="#48484D" stroke-width="2" stroke-miterlimit="10" stroke-dasharray="2 4"/>
<path d="M285.22 230H240.46C188.291 230 146 187.914 146 135.998C145.999 132.323 146.213 128.652 146.64 125" stroke="#48484D" stroke-width="2" stroke-miterlimit="10" stroke-dasharray="2 4"/>
<path d="M283.17 37.6017H378.957" stroke="#48484D" stroke-width="2" stroke-miterlimit="10" stroke-dasharray="2 4"/>
<path d="M404.872 37.6017H479.616" stroke="#48484D" stroke-width="2" stroke-miterlimit="10" stroke-dasharray="2 4"/>
<path d="M291 395.5L411.447 394.995" stroke="#48484D" stroke-width="2" stroke-miterlimit="10" stroke-dasharray="2 4"/>
<path d="M456 395L613.656 394.995C638.811 394.995 662.936 385.002 680.724 367.215C698.511 349.427 708.504 325.302 708.504 300.147C708.504 274.991 698.511 250.866 680.724 233.079C662.936 215.291 638.811 205.298 613.656 205.298H600.489" stroke="#48484D" stroke-width="2" stroke-miterlimit="10" stroke-dasharray="2 4"/>
<path d="M536.872 205.298H465" stroke="#48484D" stroke-width="2" stroke-miterlimit="10" stroke-dasharray="2 4"/>
<path d="M310.978 205.299H262.516C237.361 205.299 213.236 195.306 195.448 177.518C177.661 159.731 167.668 135.606 167.668 110.45C167.668 85.2949 177.661 61.1699 195.448 43.3824C213.236 25.5949 237.361 15.6019 262.516 15.6019H329.212" stroke="#48484D" stroke-width="2" stroke-miterlimit="10" stroke-dasharray="2 4"/>
<path d="M352.766 15.6019H477.766" stroke="#48484D" stroke-width="2" stroke-miterlimit="10" stroke-dasharray="2 4"/>
<path d="M443.626 203.408V265L390.357 295.812L337.09 265V203.408L390.357 172.629L443.626 203.408Z" fill="#083DB8"/>
<path d="M390.356 172.629L337.09 203.416L390.356 234.219V172.629Z" fill="#007FE3"/>
<path d="M390.356 295.809V234.219L337.09 265.009L390.356 295.812L390.361 295.809H390.356Z" fill="#080F6B"/>
<path d="M443.626 203.414V265.005L390.357 234.217L443.626 203.414Z" fill="#0C1578"/>
<path d="M390.356 234.219L443.623 203.416L390.356 172.629V234.219Z" fill="#0057D1"/>
<path d="M390.356 295.809L443.623 265.009L390.356 234.219V295.809Z" fill="#070A4D"/>
<path d="M406.162 256.809H364.348V249.154H406.162C407.663 249.154 409.104 248.557 410.166 247.495C411.228 246.433 411.824 244.993 411.824 243.491C411.824 241.989 411.228 240.549 410.166 239.487C409.104 238.425 407.663 237.828 406.162 237.828H373.839C370.306 237.828 366.919 236.425 364.421 233.928C361.923 231.43 360.52 228.042 360.52 224.51C360.52 220.978 361.923 217.59 364.421 215.093C366.919 212.595 370.306 211.192 373.839 211.192H415.652V218.847H373.839C373.093 218.844 372.355 218.989 371.665 219.272C370.976 219.556 370.349 219.972 369.821 220.498C369.293 221.025 368.874 221.65 368.588 222.338C368.302 223.026 368.155 223.765 368.155 224.51C368.155 225.255 368.302 225.993 368.588 226.682C368.874 227.37 369.293 227.995 369.821 228.521C370.349 229.048 370.976 229.464 371.665 229.748C372.355 230.031 373.093 230.176 373.839 230.173H406.162C407.913 230.169 409.648 230.51 411.268 231.178C412.887 231.845 414.359 232.825 415.599 234.062C416.839 235.3 417.823 236.769 418.494 238.387C419.165 240.005 419.511 241.739 419.511 243.491C419.511 245.242 419.165 246.977 418.494 248.595C417.823 250.213 416.839 251.682 415.599 252.919C414.359 254.156 412.887 255.137 411.268 255.804C409.648 256.472 407.913 256.813 406.162 256.809V256.809Z" fill="white"/>
<path d="M524.076 364.091C524.069 364.987 523.796 365.861 523.292 366.602C522.788 367.343 522.076 367.918 521.245 368.254C520.414 368.59 519.503 368.673 518.625 368.491C517.748 368.309 516.944 367.871 516.315 367.232C515.687 366.593 515.262 365.783 515.094 364.902C514.927 364.022 515.024 363.112 515.373 362.287C515.723 361.462 516.309 360.759 517.058 360.267C517.807 359.775 518.686 359.516 519.582 359.524C520.177 359.528 520.765 359.65 521.313 359.883C521.861 360.115 522.357 360.452 522.775 360.877C523.192 361.301 523.522 361.803 523.745 362.354C523.968 362.906 524.081 363.496 524.076 364.091ZM521.921 350.48L517.39 350.444L517.36 354.103C516.24 354.349 515.169 354.783 514.194 355.387L511.626 352.776L508.396 355.955L510.964 358.565C510.345 359.53 509.893 360.593 509.63 361.708L505.97 361.678L505.934 366.209L509.593 366.239C509.839 367.359 510.273 368.43 510.877 369.405L508.266 371.973L511.444 375.204L514.055 372.634C515.02 373.254 516.083 373.705 517.198 373.969L517.168 377.628L521.699 377.665L521.729 374.006C522.849 373.76 523.919 373.326 524.893 372.722L527.463 375.333L530.693 372.155L528.125 369.544C528.744 368.579 529.196 367.516 529.46 366.4L533.119 366.43L533.156 361.899L529.497 361.869C529.251 360.749 528.817 359.679 528.213 358.705L530.823 356.136L527.645 352.907L525.035 355.474C524.07 354.854 523.007 354.403 521.891 354.139L521.921 350.48Z" fill="#232326" stroke="#709BFF" stroke-width="1.3" stroke-miterlimit="10" stroke-linecap="round"/>
<path d="M152.103 113.619C152.094 114.703 151.765 115.759 151.155 116.655C150.546 117.551 149.685 118.246 148.681 118.652C147.677 119.059 146.575 119.158 145.514 118.938C144.453 118.718 143.481 118.189 142.722 117.416C141.962 116.644 141.448 115.664 141.245 114.6C141.043 113.536 141.16 112.435 141.583 111.438C142.005 110.44 142.714 109.591 143.62 108.996C144.525 108.401 145.587 108.089 146.67 108.098C147.39 108.103 148.101 108.251 148.763 108.531C149.425 108.812 150.026 109.22 150.53 109.733C151.035 110.246 151.433 110.853 151.703 111.52C151.973 112.187 152.109 112.9 152.103 113.619ZM149.498 97.1652L144.021 97.1207L143.985 101.544C142.63 101.842 141.337 102.367 140.158 103.097L137.053 99.9409L133.148 103.783L136.253 106.939C135.504 108.105 134.959 109.39 134.64 110.739L130.216 110.703L130.172 116.181L134.595 116.216C134.893 117.571 135.418 118.864 136.148 120.043L132.992 123.148L136.834 127.053L139.99 123.947C141.156 124.696 142.441 125.242 143.79 125.561L143.754 129.985L149.232 130.029L149.268 125.606C150.621 125.308 151.914 124.784 153.092 124.053L156.198 127.211L160.103 123.368L156.998 120.212C157.747 119.046 158.293 117.76 158.612 116.411L163.036 116.447L163.08 110.97L158.657 110.934C158.36 109.58 157.835 108.287 157.104 107.109L160.26 104.004L156.418 100.1L153.263 103.203C152.097 102.454 150.812 101.908 149.462 101.589L149.498 97.1652Z" fill="#232326" stroke="#709BFF" stroke-width="1.3" stroke-miterlimit="10" stroke-linecap="round"/>
<path d="M181.678 54.3086C196.413 54.3086 208.359 42.3635 208.359 27.6284C208.359 12.8934 196.413 0.948242 181.678 0.948242C166.943 0.948242 154.998 12.8934 154.998 27.6284C154.998 42.3635 166.943 54.3086 181.678 54.3086Z" fill="#302D35"/>
<path d="M168.098 14.0475C170.784 11.3615 174.206 9.53224 177.932 8.79114C181.658 8.05004 185.519 8.43036 189.029 9.88404C192.538 11.3377 195.538 13.7995 197.648 16.9579C199.759 20.1164 200.885 23.8297 200.885 27.6284C200.885 31.4271 199.759 35.1405 197.648 38.299C195.538 41.4574 192.538 43.9192 189.029 45.3729C185.519 46.8265 181.658 47.2069 177.932 46.4658C174.206 45.7247 170.784 43.8954 168.098 41.2094C164.501 37.6048 162.481 32.7206 162.481 27.6284C162.481 22.5363 164.501 17.6521 168.098 14.0475ZM163.25 9.19995C159.605 12.8448 157.123 17.4887 156.117 22.5444C155.111 27.6 155.627 32.8404 157.6 37.6028C159.572 42.3652 162.913 46.4356 167.199 49.2995C171.485 52.1633 176.524 53.692 181.679 53.692C186.833 53.692 191.872 52.1633 196.158 49.2995C200.444 46.4356 203.785 42.3652 205.757 37.6028C207.73 32.8404 208.246 27.6 207.24 22.5444C206.235 17.4887 203.752 12.8448 200.107 9.19995C195.219 4.31295 188.59 1.5675 181.679 1.5675C174.767 1.5675 168.138 4.31295 163.25 9.19995Z" fill="#38363F"/>
<path d="M181.678 2.24825C187.55 2.24829 193.24 4.28431 197.779 8.00936C202.318 11.7344 205.425 16.9181 206.57 22.677C207.716 28.436 206.829 34.414 204.061 39.5924C201.293 44.7709 196.815 48.8294 191.39 51.0764C185.966 53.3234 179.929 53.6199 174.31 51.9154C168.691 50.2109 163.837 46.6108 160.575 41.7286C157.313 36.8464 155.845 30.984 156.42 25.1405C156.996 19.297 159.58 13.8338 163.732 9.68185C166.083 7.31771 168.88 5.44342 171.96 4.16744C175.041 2.89146 178.344 2.23914 181.678 2.24825ZM181.678 0.948264C175.506 0.948283 169.524 3.08852 164.753 7.00436C159.981 10.9202 156.715 16.3694 155.511 22.4233C154.307 28.4772 155.239 34.7614 158.148 40.2051C161.058 45.6488 165.765 49.9152 171.468 52.2774C177.171 54.6395 183.516 54.9512 189.423 53.1594C195.33 51.3677 200.432 47.5832 203.862 42.451C207.291 37.3187 208.835 31.1561 208.23 25.0133C207.625 18.8704 204.908 13.1275 200.544 8.76278C198.069 6.28159 195.128 4.31393 191.891 2.97286C188.653 1.63179 185.182 0.943728 181.678 0.948264Z" fill="#709BFF"/>
<path d="M204.948 50.8987L199.659 45.6095" stroke="#709BFF" stroke-width="4" stroke-miterlimit="10"/>
<path d="M209.017 47.1201L201.17 54.967L226.58 80.3774L234.427 72.5305L209.017 47.1201Z" fill="#232326" stroke="#709BFF" stroke-width="1.3" stroke-miterlimit="10" stroke-linecap="round"/>
<path d="M181.792 22.4591C186.566 22.4591 189.894 25.4854 191.342 27.1178C189.934 28.9632 186.606 32.5078 181.792 32.5078C177.35 32.5078 173.824 28.9554 172.268 27.0749C173.768 25.4197 177.109 22.4591 181.792 22.4591ZM181.792 20.4491C174.187 20.4491 169.719 27.0316 169.719 27.0316C169.719 27.0316 174.577 34.517 181.792 34.517C189.563 34.517 193.835 27.0316 193.835 27.0316C193.835 27.0316 189.523 20.4494 181.792 20.4494V20.4491ZM181.777 24.1646C181.121 24.1646 180.479 24.3592 179.933 24.7238C179.388 25.0884 178.962 25.6068 178.711 26.2131C178.46 26.8195 178.394 27.4868 178.522 28.1305C178.65 28.7742 178.966 29.3655 179.43 29.8296C179.894 30.2937 180.486 30.6098 181.13 30.7379C181.773 30.8659 182.44 30.8001 183.047 30.549C183.653 30.2978 184.171 29.8724 184.536 29.3267C184.901 28.7809 185.095 28.1393 185.095 27.483C185.095 27.0472 185.01 26.6157 184.843 26.2131C184.676 25.8105 184.432 25.4447 184.124 25.1365C183.815 24.8284 183.45 24.5839 183.047 24.4172C182.644 24.2505 182.213 24.1648 181.777 24.1649V24.1646Z" fill="#FFC81A"/>
<path d="M348.098 335.489L348.156 347.077L368.27 381.916C368.584 382.46 368.75 383.077 368.75 383.705C368.75 384.333 368.584 384.95 368.27 385.494C367.956 386.038 367.505 386.49 366.961 386.804C366.417 387.118 365.8 387.283 365.172 387.283H319.404C318.776 387.283 318.159 387.118 317.615 386.804C317.071 386.49 316.62 386.038 316.306 385.494C315.991 384.95 315.826 384.333 315.826 383.705C315.826 383.077 315.991 382.46 316.306 381.916L336.395 347.121V335.489H335.227C335.001 335.489 334.777 335.445 334.568 335.358C334.359 335.271 334.169 335.144 334.009 334.984C333.849 334.824 333.722 334.634 333.635 334.425C333.548 334.216 333.504 333.992 333.504 333.766V330.875C333.504 330.648 333.548 330.424 333.635 330.215C333.722 330.006 333.849 329.816 334.009 329.656C334.169 329.496 334.359 329.369 334.568 329.282C334.777 329.196 335.001 329.151 335.227 329.151H349.349C349.806 329.151 350.244 329.333 350.567 329.656C350.891 329.979 351.072 330.418 351.072 330.875V333.766C351.072 334.223 350.891 334.661 350.567 334.984C350.244 335.307 349.806 335.489 349.349 335.489H342.395" fill="#38363F"/>
<path d="M348.098 335.489L348.156 347.077L368.27 381.916C368.584 382.46 368.75 383.077 368.75 383.705C368.75 384.333 368.584 384.95 368.27 385.494C367.956 386.038 367.505 386.49 366.961 386.804C366.417 387.118 365.8 387.283 365.172 387.283H319.404C318.776 387.283 318.159 387.118 317.615 386.804C317.071 386.49 316.62 386.038 316.306 385.494C315.991 384.95 315.826 384.333 315.826 383.705C315.826 383.077 315.991 382.46 316.306 381.916L336.395 347.121V335.489H335.227C335.001 335.489 334.777 335.445 334.568 335.358C334.359 335.271 334.169 335.144 334.009 334.984C333.849 334.824 333.722 334.634 333.635 334.425C333.548 334.216 333.504 333.992 333.504 333.766V330.875C333.504 330.648 333.548 330.424 333.635 330.215C333.722 330.006 333.849 329.816 334.009 329.656C334.169 329.496 334.359 329.369 334.568 329.282C334.777 329.196 335.001 329.151 335.227 329.151H349.349C349.806 329.151 350.244 329.333 350.567 329.656C350.891 329.979 351.072 330.418 351.072 330.875V333.766C351.072 334.223 350.891 334.661 350.567 334.984C350.244 335.307 349.806 335.489 349.349 335.489H342.395" stroke="#709BFF" stroke-width="1.3" stroke-miterlimit="10"/>
<path d="M334.608 358.217L322.324 379.494C322.102 379.878 321.985 380.313 321.985 380.757C321.985 381.2 322.102 381.636 322.324 382.02C322.546 382.404 322.865 382.723 323.249 382.945C323.633 383.167 324.069 383.284 324.512 383.284H360.064C360.508 383.284 360.944 383.167 361.328 382.945C361.712 382.723 362.031 382.404 362.253 382.02C362.474 381.636 362.591 381.2 362.591 380.757C362.591 380.313 362.474 379.878 362.253 379.494L349.97 358.217H334.608Z" fill="#232326"/>
<path d="M332.847 379.818C334.78 379.818 336.347 378.251 336.347 376.318C336.347 374.385 334.78 372.818 332.847 372.818C330.914 372.818 329.347 374.385 329.347 376.318C329.347 378.251 330.914 379.818 332.847 379.818Z" fill="#232326" stroke="#709BFF" stroke-width="1.3" stroke-miterlimit="10" stroke-linecap="round"/>
<path d="M342.661 368.253C344.077 368.253 345.224 367.105 345.224 365.689C345.224 364.273 344.077 363.125 342.661 363.125C341.245 363.125 340.097 364.273 340.097 365.689C340.097 367.105 341.245 368.253 342.661 368.253Z" fill="#232326" stroke="#709BFF" stroke-width="1.3" stroke-miterlimit="10" stroke-linecap="round"/>
<path d="M349.831 377.068C350.789 377.068 351.565 376.291 351.565 375.333C351.565 374.376 350.789 373.599 349.831 373.599C348.873 373.599 348.097 374.376 348.097 375.333C348.097 376.291 348.873 377.068 349.831 377.068Z" fill="#FFC81A"/>
<path d="M396.809 33.8499V41.3518L390.312 45.1028L383.816 41.3518V33.8499L390.312 30.0999L396.809 33.8499Z" fill="#709BFF"/>
<path d="M507.469 187.624V192.17L503.532 194.443L499.595 192.17V187.624L503.532 185.351L507.469 187.624Z" fill="#709BFF"/>
<path d="M279.192 187.624V192.17L275.255 194.443L271.318 192.17V187.624L275.255 185.351L279.192 187.624Z" fill="#709BFF"/>
<path d="M493.83 361.781V366.327L489.894 368.6L485.957 366.327V361.781L489.894 359.509L493.83 361.781Z" fill="#38363F" stroke="#709BFF" stroke-width="1.3" stroke-miterlimit="10"/>
<path d="M516.355 242.566V247.736L511.878 250.321L507.401 247.736V242.566L511.878 239.982L516.355 242.566Z" fill="#FFC81A"/>
<path d="M450.966 67.1208V72.6249L446.199 75.3768L441.433 72.6249V67.1208L446.199 64.3689L450.966 67.1208Z" fill="#709BFF"/>
<path d="M428.129 398.133V391.855L433.568 388.716L439.005 391.855V398.133L433.568 401.275L428.129 398.133Z" fill="#38363F"/>
<path d="M433.567 389.149L438.63 392.072V397.918L433.567 400.841L428.505 397.918V392.072L433.567 389.149ZM433.567 388.283L427.755 391.639V398.351L433.567 401.707L439.38 398.351V391.639L433.567 388.283Z" fill="#709BFF"/>
<path d="M549.356 40.2141V9.79279C549.356 9.40627 549.28 9.02354 549.132 8.66644C548.984 8.30935 548.767 7.98486 548.494 7.71155C548.221 7.43824 547.896 7.22146 547.539 7.07355C547.182 6.92563 546.799 6.84949 546.413 6.84949H520.6L508.741 18.6411L508.757 40.2145" fill="#232326"/>
<path d="M549.341 30.8712V9.79291C549.341 9.01229 549.031 8.26364 548.479 7.71167C547.927 7.15969 547.179 6.84961 546.398 6.84961H520.6L508.741 18.6412V56.7663C508.741 57.1528 508.817 57.5355 508.965 57.8926C509.113 58.2497 509.33 58.5741 509.603 58.8475C509.877 59.1208 510.201 59.3375 510.558 59.4855C510.915 59.6334 511.298 59.7095 511.684 59.7095H517.838" stroke="#709BFF" stroke-width="1.3" stroke-linejoin="bevel"/>
<path d="M519.171 34.1161H514.771" stroke="#2570B6" stroke-width="2" stroke-linecap="round" stroke-linejoin="round"/>
<path d="M519.171 40.6816H514.671" stroke="#2570B6" stroke-width="2" stroke-linecap="round" stroke-linejoin="round"/>
<path d="M514.771 47.2472H519.171" stroke="#2570B6" stroke-width="2" stroke-linecap="round" stroke-linejoin="round"/>
<path d="M540.608 12.6968H514.795L502.937 24.488L502.952 62.5974C502.952 63.3777 503.263 64.126 503.815 64.6777C504.366 65.2294 505.115 65.5394 505.895 65.5394H539.631C540.146 65.5394 540.656 65.4379 541.131 65.2408C541.607 65.0438 542.039 64.7549 542.403 64.3907C542.767 64.0266 543.056 63.5943 543.253 63.1186C543.45 62.6428 543.551 62.1329 543.551 61.618V15.64C543.551 14.8594 543.241 14.1108 542.689 13.5588C542.137 13.0069 541.389 12.6968 540.608 12.6968Z" fill="#38363F"/>
<path d="M508.966 69.873C513.85 69.873 517.207 66.126 517.207 61.2419V36.8583H553.42L557.481 32.0345H565.733V69.873H508.966Z" fill="#232326" stroke="#C288FF" stroke-width="1.3" stroke-miterlimit="10" stroke-linecap="round"/>
<path d="M543.536 32.7941V15.64C543.536 14.8594 543.226 14.1107 542.674 13.5588C542.122 13.0068 541.374 12.6968 540.594 12.6968H514.795L502.938 24.488V62.613C502.938 63.3936 503.247 64.1422 503.799 64.6942C504.351 65.2461 505.099 65.5562 505.88 65.5563H510.034" stroke="#709BFF" stroke-width="1.3" stroke-miterlimit="10"/>
<path d="M514.796 12.6968V24.4878H502.938L514.796 12.6968Z" fill="#232326" stroke="#709BFF" stroke-width="1.3" stroke-linecap="round" stroke-linejoin="bevel"/>
<path d="M537.64 31.4749H508.865" stroke="#FFC81A" stroke-width="1.3" stroke-linejoin="bevel"/>
<path d="M512.404 38.0403H508.966" stroke="#FFC81A" stroke-width="1.3" stroke-linejoin="bevel"/>
<path d="M512.404 44.606H508.865" stroke="#FFC81A" stroke-width="1.3" stroke-linejoin="bevel"/>
<path d="M508.966 51.1715H512.404" stroke="#FFC81A" stroke-width="1.3" stroke-linejoin="bevel"/>
<path d="M565.733 61.0608V32.0348H557.482L553.421 36.8578H517.208V61.0608H565.733Z" fill="#38363F"/>
<path d="M508.966 69.873C513.85 69.873 517.207 66.126 517.207 61.2419V36.8583H553.42L557.481 32.0345H565.733V69.873H508.966Z" stroke="#709BFF" stroke-width="1.3" stroke-miterlimit="10"/>
<path d="M616.108 330.914H690.128V264.398H616.108V330.914Z" fill="#38363F" stroke="#709BFF" stroke-width="1.3" stroke-linecap="round" stroke-linejoin="round"/>
<path d="M616.108 282.136H690.128V264.398H616.108V282.136Z" fill="#232326" stroke="#709BFF" stroke-width="1.3" stroke-linecap="round" stroke-linejoin="round"/>
<path d="M648.513 293.41L657.552 316.595" stroke="#FFC81A" stroke-width="3" stroke-miterlimit="10"/>
<path d="M640.894 295.61L627.932 306.013L640.894 314.882" stroke="#FFC81A" stroke-width="3" stroke-miterlimit="10"/>
<path d="M664.426 295.61L677.388 306.013L664.426 314.882" stroke="#FFC81A" stroke-width="3" stroke-miterlimit="10"/>
<path d="M684.642 273.267C684.642 273.734 684.504 274.19 684.244 274.579C683.985 274.967 683.616 275.269 683.185 275.448C682.754 275.627 682.279 275.673 681.821 275.582C681.363 275.491 680.943 275.267 680.612 274.936C680.282 274.606 680.057 274.186 679.966 273.728C679.875 273.27 679.922 272.795 680.101 272.364C680.279 271.932 680.582 271.564 680.97 271.304C681.358 271.045 681.815 270.906 682.282 270.906C682.592 270.906 682.899 270.968 683.185 271.086C683.471 271.205 683.732 271.379 683.951 271.598C684.17 271.817 684.344 272.077 684.463 272.364C684.581 272.65 684.642 272.957 684.642 273.267ZM674.052 270.906C673.585 270.906 673.128 271.045 672.74 271.304C672.352 271.564 672.049 271.932 671.871 272.364C671.692 272.795 671.645 273.27 671.736 273.728C671.827 274.186 672.052 274.606 672.382 274.936C672.713 275.267 673.133 275.491 673.591 275.582C674.049 275.673 674.524 275.627 674.955 275.448C675.386 275.269 675.755 274.967 676.014 274.579C676.274 274.19 676.412 273.734 676.412 273.267C676.412 272.641 676.163 272.041 675.721 271.598C675.278 271.155 674.678 270.907 674.052 270.906ZM665.822 270.906C665.355 270.906 664.898 271.045 664.51 271.304C664.122 271.564 663.819 271.932 663.641 272.364C663.462 272.795 663.415 273.27 663.506 273.728C663.597 274.186 663.822 274.606 664.152 274.936C664.483 275.267 664.903 275.491 665.361 275.582C665.819 275.673 666.294 275.627 666.725 275.448C667.156 275.269 667.525 274.967 667.784 274.579C668.044 274.19 668.182 273.734 668.182 273.267C668.182 272.641 667.933 272.041 667.491 271.598C667.048 271.155 666.448 270.907 665.822 270.906Z" fill="#38363F" stroke="#709BFF" stroke-width="1.3" stroke-linecap="round" stroke-linejoin="round"/>
<path d="M273.299 327.095H179.898V416.797H273.299V327.095Z" fill="#232326" stroke="#709BFF" stroke-width="1.3" stroke-linecap="round" stroke-linejoin="round"/>
<path d="M274.615 389.172H177.958C176.021 389.172 174.451 390.742 174.451 392.679V415.409C174.451 417.345 176.021 418.915 177.958 418.915H274.615C276.551 418.915 278.121 417.345 278.121 415.409V392.679C278.121 390.742 276.551 389.172 274.615 389.172Z" fill="#3B3B3F" stroke="#709BFF" stroke-width="1.3" stroke-linecap="round" stroke-linejoin="round"/>
<path d="M274.615 354.36H177.958C176.021 354.36 174.451 355.93 174.451 357.867V380.596C174.451 382.533 176.021 384.103 177.958 384.103H274.615C276.551 384.103 278.121 382.533 278.121 380.596V357.867C278.121 355.93 276.551 354.36 274.615 354.36Z" fill="#3B3B3F" stroke="#709BFF" stroke-width="1.3" stroke-linecap="round" stroke-linejoin="round"/>
<path d="M274.615 319.548H177.958C176.021 319.548 174.451 321.118 174.451 323.054V345.784C174.451 347.72 176.021 349.29 177.958 349.29H274.615C276.551 349.29 278.121 347.72 278.121 345.784V323.054C278.121 321.118 276.551 319.548 274.615 319.548Z" fill="#3B3B3F" stroke="#709BFF" stroke-width="1.3" stroke-linecap="round" stroke-linejoin="round"/>
<path d="M187.704 398.504H191.194V409.583H187.704V398.504ZM195.152 409.583H198.642V398.504H195.152V409.583ZM202.6 409.583H206.09V398.504H202.6V409.583ZM187.704 374.771H191.194V363.692H187.704V374.771ZM195.152 374.771H198.642V363.692H195.152V374.771ZM202.6 374.771H206.09V363.692H202.6V374.771ZM187.704 339.959H191.194V328.879H187.704V339.959ZM195.152 339.959H198.642V328.879H195.152V339.959ZM202.6 339.959H206.09V328.879H202.6V339.959Z" fill="#232326"/>
<path d="M266.846 404.044C266.846 405.191 266.506 406.312 265.869 407.265C265.232 408.219 264.326 408.962 263.267 409.401C262.207 409.84 261.041 409.954 259.916 409.731C258.792 409.507 257.758 408.955 256.948 408.144C256.137 407.333 255.584 406.3 255.361 405.175C255.137 404.05 255.252 402.884 255.691 401.825C256.129 400.765 256.873 399.86 257.826 399.223C258.78 398.585 259.901 398.245 261.048 398.245C262.586 398.245 264.06 398.856 265.148 399.944C266.235 401.031 266.846 402.506 266.846 404.044ZM261.048 363.433C259.901 363.433 258.78 363.773 257.826 364.41C256.873 365.047 256.129 365.953 255.691 367.012C255.252 368.072 255.137 369.238 255.361 370.363C255.584 371.487 256.137 372.521 256.948 373.331C257.759 374.142 258.792 374.695 259.916 374.918C261.041 375.142 262.207 375.027 263.267 374.588C264.326 374.149 265.232 373.406 265.869 372.453C266.506 371.499 266.846 370.378 266.846 369.231C266.846 368.47 266.696 367.716 266.405 367.012C266.113 366.309 265.686 365.67 265.148 365.131C264.609 364.593 263.97 364.166 263.267 363.874C262.563 363.583 261.809 363.433 261.048 363.433ZM261.048 328.62C259.901 328.62 258.78 328.961 257.826 329.598C256.873 330.235 256.129 331.14 255.69 332.2C255.252 333.259 255.137 334.425 255.36 335.55C255.584 336.675 256.136 337.708 256.947 338.519C257.758 339.33 258.792 339.882 259.916 340.106C261.041 340.33 262.207 340.215 263.267 339.776C264.326 339.337 265.232 338.594 265.869 337.64C266.506 336.687 266.846 335.566 266.846 334.419C266.846 333.657 266.696 332.903 266.405 332.2C266.113 331.496 265.686 330.857 265.148 330.319C264.609 329.78 263.97 329.353 263.267 329.062C262.563 328.77 261.809 328.62 261.048 328.62Z" fill="#232326"/>
<path d="M302.852 419.135H311.404" stroke="#709BFF" stroke-width="1.3" stroke-linejoin="bevel"/>
<path d="M457.232 69.873H466.702" stroke="#709BFF" stroke-width="1.3" stroke-linejoin="bevel"/>
<path d="M474.937 69.873H664.636" stroke="#709BFF" stroke-width="1.3" stroke-linejoin="bevel"/>
<path d="M600.824 367.231C616.282 367.231 628.814 354.7 628.814 339.241C628.814 323.782 616.282 311.25 600.824 311.25C585.365 311.25 572.833 323.782 572.833 339.241C572.833 354.7 585.365 367.231 600.824 367.231Z" fill="#38363F" stroke="#709BFF" stroke-width="1.3" stroke-miterlimit="10"/>
<path d="M600.824 359.824C612.191 359.824 621.407 350.609 621.407 339.241C621.407 327.873 612.191 318.658 600.824 318.658C589.456 318.658 580.24 327.873 580.24 339.241C580.24 350.609 589.456 359.824 600.824 359.824Z" fill="#232326"/>
<path d="M615.883 341.027V337.454H612.496C612.451 337.159 612.399 336.866 612.333 336.578L615.475 335.326L614.152 332.007L611.008 333.26C610.803 332.912 610.58 332.575 610.341 332.25L612.735 329.855L610.209 327.329L607.815 329.724C607.516 329.504 607.207 329.298 606.888 329.107L608.167 325.972L604.859 324.622L603.58 327.756C603.262 327.679 602.938 327.619 602.61 327.569V324.181H599.037V327.568C598.741 327.613 598.449 327.665 598.161 327.731L596.909 324.589L593.59 325.912L594.842 329.056C594.495 329.261 594.157 329.484 593.832 329.724L591.438 327.329L588.911 329.855L591.306 332.25C591.086 332.549 590.881 332.857 590.69 333.176L587.555 331.897L586.205 335.205L589.338 336.484C589.262 336.803 589.201 337.126 589.151 337.454H585.764V341.027H589.151C589.196 341.323 589.248 341.616 589.314 341.904L586.172 343.155L587.495 346.474L590.639 345.222C590.844 345.57 591.067 345.907 591.306 346.232L588.911 348.627L591.438 351.153L593.832 348.758C594.131 348.978 594.44 349.184 594.759 349.375L593.48 352.51L596.788 353.86L598.066 350.726C598.385 350.802 598.709 350.863 599.037 350.913V354.301H602.61V350.913C602.905 350.868 603.198 350.817 603.486 350.75L604.738 353.892L608.057 352.57L606.804 349.426C607.152 349.221 607.489 348.998 607.814 348.758L610.209 351.153L612.735 348.627L610.341 346.232C610.561 345.933 610.766 345.624 610.957 345.305L614.092 346.585L615.442 343.277L612.309 341.998C612.385 341.679 612.446 341.356 612.496 341.027H615.883ZM600.823 345.977C599.491 345.977 598.188 345.582 597.08 344.842C595.973 344.102 595.109 343.05 594.599 341.819C594.089 340.588 593.956 339.233 594.216 337.926C594.476 336.62 595.117 335.419 596.06 334.477C597.002 333.535 598.202 332.893 599.509 332.634C600.816 332.374 602.17 332.507 603.401 333.017C604.632 333.527 605.684 334.39 606.424 335.498C607.165 336.606 607.56 337.908 607.56 339.241C607.56 341.027 606.85 342.741 605.587 344.004C604.323 345.267 602.61 345.977 600.823 345.977Z" fill="#FFC81A"/>
<path d="M600.824 342.702C602.735 342.702 604.285 341.153 604.285 339.241C604.285 337.329 602.735 335.779 600.824 335.779C598.912 335.779 597.362 337.329 597.362 339.241C597.362 341.153 598.912 342.702 600.824 342.702Z" fill="#38363F"/>
<path d="M588.333 314.186V306.971C588.333 303.659 589.649 300.481 591.992 298.139C594.334 295.797 597.511 294.481 600.824 294.481C604.137 294.481 607.314 295.797 609.656 298.139C611.998 300.481 613.314 303.659 613.314 306.971V314.186C615.634 315.428 617.807 316.928 619.791 318.657V306.971C619.791 301.941 617.793 297.116 614.236 293.559C610.679 290.002 605.854 288.004 600.824 288.004C595.793 288.004 590.969 290.002 587.412 293.559C583.855 297.116 581.856 301.941 581.856 306.971V318.658C583.807 316.886 585.985 315.382 588.333 314.186Z" fill="#232326" stroke="#709BFF" stroke-width="1.3" stroke-linecap="round" stroke-linejoin="round"/>
<path d="M454.918 390.186L448.8 393.718C448.589 393.84 448.414 394.015 448.292 394.226C448.171 394.437 448.106 394.676 448.106 394.92C448.106 395.164 448.171 395.403 448.292 395.614C448.414 395.825 448.589 396 448.8 396.122L454.918 399.654C455.129 399.776 455.368 399.84 455.612 399.84C455.855 399.84 456.095 399.776 456.306 399.654C456.517 399.532 456.692 399.357 456.814 399.146C456.936 398.935 457 398.696 457 398.452V391.388C457 391.144 456.936 390.905 456.814 390.694C456.692 390.483 456.517 390.308 456.306 390.186C456.095 390.064 455.855 390 455.612 390C455.368 390 455.129 390.064 454.918 390.186Z" fill="#434347"/>
<path d="M416.918 390.186L410.694 393.718C410.483 393.84 410.308 394.015 410.186 394.226C410.064 394.437 410 394.676 410 394.92C410 395.164 410.064 395.403 410.186 395.614C410.308 395.825 410.483 396 410.694 396.122L416.918 399.654C417.129 399.776 417.368 399.84 417.612 399.84C417.856 399.84 418.095 399.776 418.306 399.654C418.517 399.532 418.692 399.357 418.814 399.146C418.936 398.935 419 398.696 419 398.452V391.388C419 391.144 418.936 390.905 418.814 390.694C418.692 390.483 418.517 390.308 418.306 390.186C418.095 390.064 417.856 390 417.612 390C417.368 390 417.129 390.064 416.918 390.186Z" fill="#434347"/>
<path d="M226.918 428.186L220.694 431.718C220.483 431.84 220.308 432.015 220.186 432.226C220.064 432.437 220 432.676 220 432.92C220 433.164 220.064 433.403 220.186 433.614C220.308 433.825 220.483 434 220.694 434.122L226.918 437.654C227.129 437.776 227.368 437.84 227.612 437.84C227.856 437.84 228.095 437.776 228.306 437.654C228.517 437.532 228.692 437.357 228.814 437.146C228.936 436.935 229 436.696 229 436.452V429.388C229 429.145 228.936 428.905 228.814 428.694C228.692 428.483 228.517 428.308 228.306 428.186C228.095 428.064 227.856 428 227.612 428C227.368 428 227.129 428.064 226.918 428.186Z" fill="#434347"/>
<path d="M385.876 359.317L379.758 362.849C379.547 362.971 379.372 363.146 379.25 363.357C379.129 363.568 379.064 363.807 379.064 364.051C379.064 364.294 379.129 364.534 379.25 364.745C379.372 364.956 379.547 365.131 379.758 365.253L385.876 368.785C386.087 368.907 386.326 368.971 386.57 368.971C386.813 368.971 387.053 368.907 387.264 368.785C387.475 368.663 387.65 368.488 387.772 368.277C387.894 368.066 387.958 367.827 387.958 367.583V360.519C387.958 360.275 387.894 360.036 387.772 359.825C387.65 359.614 387.475 359.439 387.264 359.317C387.053 359.195 386.813 359.131 386.57 359.131C386.326 359.131 386.087 359.195 385.876 359.317Z" fill="#709BFF"/>
<path d="M333.981 65.139L327.864 68.6708C327.653 68.7926 327.478 68.9679 327.356 69.1789C327.234 69.3899 327.17 69.6293 327.17 69.8729C327.17 70.1166 327.234 70.3559 327.356 70.567C327.478 70.778 327.653 70.9532 327.864 71.075L333.981 74.6072C334.192 74.729 334.432 74.793 334.676 74.793C334.919 74.793 335.159 74.7289 335.37 74.6071C335.581 74.4852 335.756 74.31 335.877 74.099C335.999 73.888 336.063 73.6487 336.063 73.405V66.3411C336.064 66.0975 335.999 65.8581 335.878 65.6471C335.756 65.4361 335.581 65.2608 335.37 65.139C335.158 65.0171 334.919 64.953 334.676 64.953C334.432 64.953 334.192 65.0171 333.981 65.139Z" fill="#709BFF"/>
<path d="M460.123 210.033L466.24 206.501C466.451 206.379 466.627 206.204 466.749 205.993C466.87 205.782 466.934 205.542 466.934 205.299C466.934 205.055 466.87 204.816 466.749 204.605C466.627 204.394 466.451 204.218 466.24 204.097L460.123 200.564C459.912 200.443 459.673 200.379 459.429 200.379C459.185 200.379 458.946 200.443 458.735 200.565C458.524 200.686 458.349 200.862 458.227 201.073C458.105 201.284 458.041 201.523 458.041 201.767V208.831C458.041 209.074 458.105 209.314 458.227 209.525C458.349 209.736 458.524 209.911 458.735 210.033C458.946 210.154 459.185 210.219 459.429 210.219C459.673 210.219 459.912 210.155 460.123 210.033Z" fill="#434347"/>
<path d="M286.083 234.971L292.2 231.439C292.411 231.317 292.587 231.142 292.708 230.931C292.83 230.72 292.894 230.481 292.894 230.237C292.894 229.994 292.83 229.754 292.708 229.543C292.587 229.332 292.411 229.157 292.2 229.035L286.083 225.503C285.872 225.381 285.633 225.317 285.389 225.317C285.145 225.317 284.906 225.381 284.695 225.503C284.484 225.625 284.309 225.8 284.187 226.011C284.065 226.222 284.001 226.461 284.001 226.705V233.769C284.001 234.013 284.065 234.252 284.187 234.463C284.309 234.674 284.484 234.849 284.695 234.971C284.906 235.093 285.145 235.157 285.389 235.157C285.633 235.157 285.872 235.093 286.083 234.971Z" fill="#434347"/>
<path d="M282.14 32.8676L276.022 36.3996C275.811 36.5214 275.636 36.6966 275.514 36.9076C275.392 37.1186 275.328 37.3579 275.328 37.6016C275.328 37.8452 275.392 38.0846 275.514 38.2956C275.636 38.5066 275.811 38.6818 276.022 38.8036L282.14 42.3359C282.351 42.4577 282.59 42.5218 282.834 42.5218C283.077 42.5218 283.317 42.4576 283.528 42.3358C283.739 42.2139 283.914 42.0387 284.036 41.8277C284.158 41.6167 284.222 41.3773 284.222 41.1337V34.0697C284.222 33.8261 284.158 33.5867 284.036 33.3757C283.914 33.1647 283.739 32.9894 283.528 32.8676C283.317 32.7458 283.077 32.6816 282.834 32.6816C282.59 32.6816 282.351 32.7458 282.14 32.8676Z" fill="#434347"/>
<path d="M620.433 246.137L626.59 249.6C626.802 249.72 627.042 249.781 627.286 249.778C627.53 249.776 627.768 249.709 627.978 249.585C628.188 249.46 628.361 249.283 628.48 249.071C628.6 248.859 628.661 248.619 628.658 248.375L628.58 241.311C628.577 241.068 628.51 240.829 628.386 240.619C628.262 240.41 628.084 240.237 627.872 240.117C627.66 239.998 627.42 239.936 627.176 239.939C626.932 239.942 626.694 240.009 626.484 240.133L620.406 243.733C620.197 243.857 620.023 244.034 619.904 244.247C619.784 244.459 619.723 244.699 619.726 244.943C619.728 245.186 619.795 245.425 619.919 245.635C620.044 245.844 620.221 246.018 620.433 246.137Z" fill="#709BFF"/>
<path d="M126.788 185.388L132.81 189.079C133.018 189.207 133.255 189.277 133.499 189.284C133.742 189.29 133.983 189.232 134.198 189.116C134.412 189 134.591 188.829 134.719 188.622C134.846 188.414 134.916 188.176 134.923 187.933L135.109 180.871C135.116 180.628 135.058 180.387 134.942 180.172C134.826 179.958 134.655 179.778 134.447 179.651C134.239 179.524 134.002 179.453 133.758 179.447C133.515 179.441 133.273 179.498 133.059 179.615L126.851 182.984C126.637 183.1 126.457 183.271 126.33 183.479C126.202 183.686 126.132 183.924 126.125 184.168C126.119 184.411 126.177 184.652 126.293 184.866C126.409 185.08 126.58 185.26 126.788 185.388Z" fill="#709BFF"/>
<path d="M149.514 371.647C145.916 371.647 142.4 370.58 139.409 368.581C136.418 366.583 134.086 363.742 132.71 360.419C131.333 357.095 130.973 353.438 131.675 349.91C132.376 346.382 134.109 343.141 136.653 340.597C139.196 338.053 142.437 336.321 145.965 335.619C149.494 334.917 153.151 335.278 156.474 336.654C159.798 338.031 162.638 340.362 164.637 343.353C166.636 346.344 167.702 349.861 167.702 353.458C167.697 358.28 165.779 362.904 162.369 366.313C158.959 369.723 154.336 371.641 149.514 371.647ZM149.514 337.662C146.39 337.662 143.336 338.589 140.738 340.324C138.141 342.06 136.116 344.527 134.92 347.413C133.725 350.3 133.412 353.476 134.021 356.54C134.631 359.604 136.135 362.419 138.344 364.628C140.554 366.837 143.368 368.341 146.432 368.951C149.496 369.56 152.672 369.247 155.559 368.052C158.445 366.856 160.912 364.832 162.648 362.234C164.383 359.636 165.31 356.582 165.31 353.458C165.305 349.27 163.639 345.255 160.678 342.294C157.717 339.333 153.702 337.667 149.514 337.662Z" fill="#FFC81A"/>
<path d="M170.419 419.106C170.425 416.357 169.889 413.634 168.841 411.092C167.793 408.551 166.254 406.241 164.312 404.294C162.371 402.348 160.064 400.804 157.525 399.751C154.985 398.697 152.263 398.155 149.514 398.155C146.765 398.155 144.042 398.697 141.503 399.751C138.964 400.804 136.657 402.348 134.715 404.294C132.773 406.241 131.234 408.551 130.187 411.092C129.139 413.634 128.602 416.357 128.608 419.106H170.419Z" fill="#232326"/>
<path d="M149.514 398.201C143.969 398.201 138.652 400.404 134.732 404.324C130.811 408.245 128.609 413.562 128.609 419.107H103.648C103.648 406.942 108.481 395.276 117.082 386.675C125.684 378.073 137.35 373.241 149.514 373.241C161.678 373.241 173.344 378.073 181.946 386.675C190.547 395.276 195.38 406.942 195.38 419.107H170.419C170.419 413.562 168.217 408.245 164.296 404.324C160.376 400.404 155.058 398.201 149.514 398.201Z" fill="#38363F"/>
<path d="M149.514 380.085C139.165 380.085 129.24 384.196 121.922 391.514C114.604 398.832 110.493 408.757 110.493 419.106H103.648C103.648 406.942 108.481 395.276 117.082 386.675C125.684 378.073 137.35 373.241 149.514 373.241C161.678 373.241 173.344 378.073 181.946 386.675C190.547 395.276 195.38 406.942 195.38 419.106H188.535C188.535 408.757 184.424 398.832 177.106 391.514C169.788 384.196 159.863 380.085 149.514 380.085Z" fill="#232326"/>
<path d="M142.448 373.782C147.131 373.06 151.897 373.06 156.58 373.782V369.066C156.58 368.166 156.222 367.303 155.586 366.666C154.95 366.03 154.087 365.673 153.187 365.673H145.842C145.396 365.673 144.955 365.76 144.543 365.931C144.132 366.101 143.757 366.351 143.442 366.666C143.127 366.981 142.877 367.355 142.707 367.767C142.536 368.179 142.449 368.62 142.449 369.066L142.448 373.782Z" fill="#3B3B3F" stroke="#709BFF" stroke-width="1.3" stroke-linecap="round" stroke-linejoin="round"/>
<path d="M144.827 419.106C144.826 418.563 144.917 418.023 145.098 417.51L129.883 400.551L131.081 399.363L147.945 414.681C148.654 414.427 149.413 414.347 150.16 414.448C150.906 414.55 151.617 414.829 152.232 415.263C152.848 415.697 153.35 416.273 153.696 416.942C154.042 417.611 154.222 418.353 154.22 419.106H144.827Z" fill="#FFC81A"/>
<path d="M188.535 419.106C188.535 408.757 184.424 398.832 177.106 391.514C169.788 384.196 159.863 380.085 149.514 380.085C139.164 380.085 129.239 384.196 121.921 391.514C114.603 398.832 110.492 408.757 110.492 419.106" stroke="#709BFF" stroke-width="1.3" stroke-linejoin="bevel"/>
<path d="M149.514 380.453V387.2" stroke="#709BFF" stroke-width="1.3" stroke-linejoin="bevel"/>
<path d="M169.344 385.625L165.98 391.473" stroke="#709BFF" stroke-width="1.3" stroke-linejoin="bevel"/>
<path d="M184.143 401.151L178.171 404.29" stroke="#709BFF" stroke-width="1.3" stroke-linejoin="bevel"/>
<path d="M128.793 386.211L132.521 391.834" stroke="#709BFF" stroke-width="1.3" stroke-linejoin="bevel"/>
<path d="M115.224 400.407L121.153 403.627" stroke="#709BFF" stroke-width="1.3" stroke-linejoin="bevel"/>
<path d="M122.162 375.94L125.039 380.453" stroke="#709BFF" stroke-width="4" stroke-linejoin="bevel"/>
<path d="M152.223 356.905H146.805V365.665H152.223V356.905Z" fill="#232326"/>
<path d="M151.572 357.555V365.014H147.455V357.555H151.572ZM152.872 356.255H146.155V366.314H152.872V356.255Z" fill="#709BFF"/>
<path d="M175.289 374.847L172.596 379.472" stroke="#709BFF" stroke-width="4" stroke-linejoin="bevel"/>
<path d="M170.902 372.921L179.069 377.636C180.439 378.427 182.191 377.958 182.982 376.587C183.774 375.217 183.304 373.465 181.934 372.674L173.767 367.959C172.397 367.168 170.645 367.637 169.854 369.007C169.062 370.378 169.532 372.13 170.902 372.921Z" fill="#232326" stroke="#709BFF" stroke-width="1.3" stroke-miterlimit="10" stroke-linecap="round"/>
<path d="M123.386 368.864L115.367 373.825C114.021 374.658 113.606 376.424 114.438 377.769C115.271 379.115 117.037 379.531 118.382 378.698L126.401 373.736C127.746 372.904 128.162 371.138 127.33 369.792C126.497 368.447 124.731 368.031 123.386 368.864Z" fill="#232326" stroke="#709BFF" stroke-width="1.3" stroke-miterlimit="10" stroke-linecap="round"/>
<path d="M195.38 419.106C195.38 406.942 190.547 395.276 181.946 386.675C173.344 378.073 161.678 373.241 149.514 373.241C137.35 373.241 125.684 378.073 117.082 386.675C108.481 395.276 103.648 406.942 103.648 419.106" stroke="#709BFF" stroke-width="1.3" stroke-linejoin="bevel"/>
<path d="M144.476 360.629C143.663 360.625 142.886 360.299 142.313 359.723C141.74 359.147 141.419 358.367 141.419 357.555C141.419 356.743 141.74 355.963 142.313 355.387C142.886 354.811 143.663 354.485 144.476 354.481H154.552C155.364 354.485 156.142 354.811 156.714 355.387C157.287 355.963 157.609 356.743 157.609 357.555C157.609 358.367 157.287 359.147 156.714 359.723C156.142 360.299 155.364 360.625 154.552 360.629H144.476Z" fill="#232326"/>
<path d="M154.551 355.131C155.194 355.131 155.811 355.387 156.265 355.841C156.72 356.296 156.976 356.913 156.976 357.556C156.976 358.199 156.72 358.815 156.265 359.27C155.811 359.725 155.194 359.98 154.551 359.98H144.476C143.833 359.98 143.216 359.725 142.761 359.27C142.306 358.815 142.051 358.199 142.051 357.556C142.051 356.913 142.306 356.296 142.761 355.841C143.216 355.387 143.833 355.131 144.476 355.131H154.551ZM154.551 353.831H144.476C143.488 353.831 142.54 354.223 141.842 354.922C141.143 355.62 140.751 356.568 140.751 357.556C140.751 358.544 141.143 359.491 141.842 360.189C142.54 360.888 143.488 361.28 144.476 361.28H154.551C155.539 361.28 156.486 360.888 157.185 360.189C157.883 359.491 158.276 358.544 158.276 357.556C158.276 356.568 157.883 355.62 157.185 354.922C156.486 354.223 155.539 353.831 154.551 353.831Z" fill="#709BFF"/>
<path d="M48 419.135H61.9146" stroke="#709BFF" stroke-width="1.3" stroke-linejoin="bevel"/>
<path d="M73.1904 419.135H293.404" stroke="#709BFF" stroke-width="1.3" stroke-linejoin="bevel"/>
<path d="M224.525 98.2058C233.028 94.5466 242.634 94.4063 251.24 97.8158" stroke="#FFC81A" stroke-width="3" stroke-miterlimit="10"/>
<path d="M272.445 137.534C270.629 145.985 265.739 153.461 258.725 158.511" stroke="#FFC81A" stroke-width="3" stroke-miterlimit="10"/>
<path d="M218.427 158.828C210.995 153.652 205.869 145.788 204.131 136.9" stroke="#FFC81A" stroke-width="3" stroke-miterlimit="10"/>
<path d="M227.822 108.107C231.058 106.513 234.613 105.675 238.219 105.656C241.826 105.636 245.39 106.437 248.642 107.996" stroke="#302D35" stroke-width="1.3" stroke-miterlimit="10"/>
<path d="M261.508 134.748C260.09 140.891 256.292 146.219 250.949 149.565" stroke="#302D35" stroke-width="1.3" stroke-miterlimit="10"/>
<path d="M226.053 149.755C221.023 146.71 217.296 141.911 215.592 136.283" stroke="#302D35" stroke-width="1.3" stroke-miterlimit="10"/>
<path d="M238.257 152.839C236.304 152.839 234.432 152.063 233.052 150.682C231.671 149.301 230.896 147.429 230.896 145.476C230.897 143.524 231.673 141.651 233.053 140.271C234.434 138.89 236.306 138.115 238.259 138.115C240.211 138.115 242.084 138.89 243.464 140.271C244.845 141.651 245.621 143.524 245.621 145.476C245.621 147.429 244.846 149.301 243.466 150.682C242.086 152.063 240.213 152.839 238.261 152.839H238.257Z" fill="#232326"/>
<path d="M238.268 169.872C237.818 169.872 237.389 169.853 236.961 169.832C232.704 169.731 228.587 168.296 225.188 165.731C225.371 163.029 227.976 157.376 231.999 155.364C233.831 156.654 236.016 157.347 238.257 157.346C240.497 157.346 242.683 156.654 244.515 155.363C248.405 157.366 251.155 163.006 251.346 165.718C247.95 168.286 243.833 169.725 239.577 169.831C239.15 169.853 238.718 169.871 238.268 169.872Z" fill="#232326"/>
<path d="M210.738 113.378C208.786 113.377 206.914 112.601 205.533 111.22C204.153 109.839 203.378 107.967 203.378 106.014C203.378 104.062 204.154 102.189 205.535 100.809C206.915 99.4286 208.788 98.6531 210.74 98.6531C212.693 98.6531 214.565 99.4286 215.946 100.809C217.326 102.189 218.102 104.062 218.103 106.014C218.103 107.967 217.327 109.839 215.947 111.22C214.567 112.601 212.695 113.377 210.742 113.378H210.738Z" fill="#232326"/>
<path d="M210.75 130.41C210.301 130.41 209.871 130.392 209.443 130.37C205.187 130.268 201.069 128.834 197.67 126.27C197.854 123.568 200.458 117.913 204.48 115.902C206.312 117.192 208.498 117.884 210.738 117.884C212.979 117.884 215.165 117.191 216.996 115.901C220.885 117.905 223.636 123.544 223.827 126.256C220.431 128.824 216.315 130.263 212.059 130.368C211.632 130.391 211.199 130.409 210.75 130.41Z" fill="#232326"/>
<path d="M265.734 113.349C263.782 113.349 261.91 112.573 260.529 111.192C259.149 109.811 258.374 107.938 258.374 105.986C258.374 104.034 259.15 102.161 260.531 100.781C261.911 99.4001 263.784 98.6245 265.736 98.6245C267.689 98.6245 269.561 99.4001 270.942 100.781C272.323 102.161 273.098 104.034 273.099 105.986C273.099 107.938 272.324 109.811 270.943 111.192C269.563 112.573 267.691 113.349 265.738 113.349H265.734Z" fill="#232326"/>
<path d="M265.748 130.381C265.299 130.381 264.867 130.364 264.439 130.341C260.183 130.24 256.065 128.806 252.666 126.241C252.85 123.538 255.454 117.885 259.477 115.874C261.309 117.164 263.495 117.856 265.735 117.855C267.975 117.855 270.161 117.162 271.992 115.872C275.883 117.876 278.633 123.516 278.824 126.227C275.428 128.795 271.312 130.233 267.056 130.34C266.628 130.363 266.196 130.381 265.748 130.381Z" fill="#232326"/>
<path d="M238.256 138.759C240.037 138.759 241.744 139.467 243.002 140.726C244.261 141.985 244.967 143.692 244.967 145.472C244.967 147.253 244.26 148.96 243.001 150.218C241.742 151.477 240.035 152.184 238.255 152.184C236.474 152.184 234.767 151.477 233.508 150.218C232.249 148.96 231.542 147.253 231.542 145.472C231.542 143.692 232.249 141.985 233.507 140.726C234.765 139.467 236.472 138.759 238.253 138.759H238.256ZM238.256 137.459H238.253C236.132 137.467 234.1 138.315 232.604 139.818C231.107 141.321 230.267 143.355 230.268 145.476C230.268 147.597 231.109 149.631 232.607 151.133C234.104 152.635 236.136 153.482 238.257 153.489H238.261C240.382 153.481 242.413 152.633 243.91 151.13C245.406 149.628 246.246 147.593 246.246 145.472C246.245 143.351 245.404 141.317 243.906 139.815C242.409 138.313 240.377 137.466 238.256 137.459Z" fill="#709BFF"/>
<path d="M231.959 156.121C233.831 157.344 236.018 157.995 238.254 157.996C240.49 157.996 242.677 157.346 244.55 156.124C247.869 158.062 250.313 162.893 250.663 165.432C247.413 167.761 243.541 169.067 239.544 169.182C239.075 169.206 238.679 169.222 238.261 169.222C237.853 169.222 237.459 169.206 236.994 169.183C232.998 169.072 229.125 167.771 225.873 165.446C226.209 163.038 228.439 158.106 231.959 156.121ZM244.447 154.608C242.669 155.96 240.497 156.694 238.263 156.696H238.257C236.023 156.694 233.85 155.963 232.07 154.612C227.412 156.666 224.531 163.211 224.528 166.014V166.02C224.528 166.02 228.773 170.071 236.929 170.481C237.364 170.503 237.803 170.522 238.261 170.522H238.27C238.731 170.522 239.173 170.502 239.611 170.48C247.766 170.061 252.007 166.005 252.007 166.005V165.999C252.002 163.222 249.023 156.681 244.447 154.608Z" fill="#709BFF"/>
<path d="M210.738 99.2973C212.517 99.2978 214.224 100.005 215.482 101.264C216.74 102.522 217.446 104.229 217.446 106.008C217.446 107.788 216.739 109.494 215.48 110.752C214.222 112.01 212.515 112.717 210.736 112.717C208.956 112.717 207.25 112.01 205.992 110.752C204.733 109.494 204.026 107.788 204.026 106.008C204.026 104.229 204.732 102.522 205.99 101.264C207.248 100.005 208.954 99.2978 210.734 99.2973H210.738ZM210.738 97.9973H210.734C208.608 97.9978 206.57 98.8429 205.067 100.346C203.564 101.85 202.72 103.889 202.721 106.015C202.721 108.14 203.566 110.179 205.07 111.682C206.573 113.184 208.612 114.028 210.738 114.028H210.742C212.868 114.027 214.906 113.182 216.409 111.679C217.912 110.175 218.756 108.136 218.755 106.01C218.755 103.885 217.91 101.846 216.406 100.343C214.903 98.8407 212.864 97.9967 210.738 97.9973Z" fill="#709BFF"/>
<path d="M204.441 116.659C206.313 117.882 208.5 118.533 210.736 118.534C212.972 118.534 215.16 117.884 217.032 116.662C220.352 118.6 222.795 123.432 223.146 125.97C219.895 128.299 216.024 129.605 212.026 129.72C211.558 129.744 211.162 129.76 210.743 129.76C210.308 129.76 209.878 129.741 209.476 129.721C205.48 129.611 201.607 128.309 198.355 125.984C198.691 123.576 200.921 118.644 204.441 116.659ZM216.929 115.146C215.151 116.498 212.979 117.232 210.745 117.234H210.74C208.505 117.232 206.333 116.501 204.553 115.151C199.895 117.204 197.013 123.749 197.011 126.552V126.558C197.011 126.558 201.255 130.609 209.411 131.019C209.847 131.041 210.286 131.06 210.744 131.06H210.752C211.213 131.06 211.655 131.04 212.093 131.018C220.249 130.599 224.49 126.543 224.49 126.543V126.537C224.484 123.76 221.505 117.219 216.929 115.146Z" fill="#709BFF"/>
<path d="M265.735 99.269C267.515 99.2696 269.221 99.9769 270.479 101.236C271.737 102.494 272.443 104.201 272.443 105.98C272.443 107.76 271.736 109.466 270.477 110.724C269.219 111.982 267.512 112.689 265.733 112.689C263.954 112.689 262.247 111.982 260.989 110.724C259.73 109.466 259.023 107.76 259.023 105.98C259.023 104.201 259.729 102.494 260.987 101.236C262.245 99.9769 263.951 99.2696 265.731 99.269H265.735ZM265.735 97.969H265.731C263.612 97.9801 261.584 98.8298 260.09 100.332C258.596 101.835 257.757 103.867 257.758 105.986C257.758 108.105 258.598 110.137 260.093 111.639C261.588 113.14 263.616 113.989 265.735 113.999H265.739C267.858 113.988 269.886 113.138 271.38 111.636C272.874 110.134 273.713 108.101 273.712 105.982C273.712 103.863 272.872 101.831 271.377 100.329C269.883 98.8277 267.854 97.9791 265.735 97.969Z" fill="#709BFF"/>
<path d="M259.438 116.631C261.309 117.854 263.497 118.505 265.733 118.505C267.968 118.506 270.156 117.855 272.028 116.634C275.348 118.571 277.791 123.403 278.142 125.941C274.892 128.271 271.02 129.577 267.023 129.691C266.641 129.711 266.195 129.731 265.739 129.731C265.29 129.731 264.85 129.711 264.472 129.692C260.476 129.582 256.603 128.281 253.351 125.956C253.687 123.547 255.917 118.616 259.438 116.631ZM271.926 115.118C270.147 116.47 267.975 117.203 265.741 117.205H265.736C263.502 117.204 261.329 116.472 259.549 115.122C254.891 117.176 252.009 123.72 252.007 126.523V126.529C252.007 126.529 256.252 130.581 264.408 130.991C264.843 131.012 265.282 131.031 265.74 131.031H265.749C266.209 131.031 266.651 131.011 267.09 130.989C275.245 130.571 279.486 126.515 279.486 126.515V126.509C279.48 123.732 276.502 117.19 271.926 115.118Z" fill="#709BFF"/>
<path d="M432.808 69.873H333.17" stroke="#709BFF" stroke-width="1.3" stroke-linejoin="bevel"/>
<path d="M564.611 87.4668V20.2609L661.393 20.2198L661.433 87.4668H564.611Z" fill="#232326"/>
<path d="M658.433 23.2202V84.4672H567.611V23.2202H658.434H658.433ZM661.392 17.2202H564.652C564.253 17.2202 563.858 17.2988 563.489 17.4517C563.12 17.6045 562.784 17.8285 562.502 18.1109C562.22 18.3933 561.996 18.7286 561.843 19.0975C561.69 19.4665 561.611 19.862 561.611 20.2614V88.7697C561.611 89.2199 561.79 89.6517 562.109 89.97C562.427 90.2884 562.859 90.4672 563.309 90.4672H662.736C663.187 90.4672 663.618 90.2884 663.937 89.97C664.255 89.6517 664.434 89.2199 664.434 88.7697V20.2612C664.434 19.8618 664.355 19.4663 664.202 19.0973C664.05 18.7283 663.826 18.3931 663.543 18.1107C663.261 17.8283 662.925 17.6042 662.556 17.4514C662.187 17.2986 661.792 17.22 661.393 17.22L661.392 17.2202Z" fill="#38363F"/>
<path d="M661.438 17.22C662.236 17.223 662.999 17.5426 663.561 18.1086C664.123 18.6746 664.437 19.4405 664.434 20.238V91.048H561.611V20.238C561.608 19.4405 561.922 18.6746 562.484 18.1086C563.046 17.5426 563.81 17.223 564.607 17.22H661.438Z" stroke="#709BFF" stroke-width="1.3" stroke-miterlimit="10"/>
<path d="M559.473 96.3043H666.572C668.258 96.3043 669.876 95.6343 671.068 94.4419C672.261 93.2494 672.931 91.6321 672.931 89.9457V88.335H622.213L619.67 91.0479H608.196L605.766 88.335H553.114V89.9457C553.114 91.6321 553.784 93.2494 554.977 94.4419C556.169 95.6343 557.786 96.3043 559.473 96.3043Z" fill="#302D35" stroke="#709BFF" stroke-width="1.3" stroke-linecap="round" stroke-linejoin="round"/>
<mask id="mask0" mask-type="alpha" maskUnits="userSpaceOnUse" x="577" y="26" width="63" height="55">
<path d="M639.914 26.2936H577.914V80.2936H639.914V26.2936Z" fill="white"/>
<path d="M639.251 27.2936H598.366V28.397H639.251V27.2936Z" fill="black"/>
<path d="M611.253 33.1184H603.114V34.2218H611.253V33.1184Z" fill="black"/>
<path d="M606.39 50.0947H578.914V51.1981H606.39V50.0947Z" fill="black"/>
<path d="M630.413 55.8052H622.105V56.9086H630.413V55.8052Z" fill="black"/>
<path d="M594.127 61.5039H583.423V62.6073H594.127V61.5039Z" fill="black"/>
<path d="M605.872 67.2258H601.973V68.3292H605.872V67.2258Z" fill="black"/>
<path d="M617.866 72.9363H603.283V74.0397H617.866V72.9363Z" fill="black"/>
<path d="M603.792 38.6742H578.914V39.7776H603.792V38.6742Z" fill="black"/>
<path d="M605.872 78.8114H601.973V79.9148H605.872V78.8114Z" fill="black"/>
</mask>
<g mask="url(#mask0)">
<path d="M639.251 27.2936H598.366V28.397H639.251V27.2936Z" fill="#FFC81A"/>
<path d="M611.253 33.1184H603.114V34.2218H611.253V33.1184Z" fill="#FFC81A"/>
<path d="M606.39 50.0948H578.914V51.1982H606.39V50.0948Z" fill="#FFC81A"/>
<path d="M630.413 55.8052H622.105V56.9086H630.413V55.8052Z" fill="#FFC81A"/>
<path d="M594.127 61.5039H583.423V62.6073H594.127V61.5039Z" fill="#FFC81A"/>
<path d="M605.872 67.2258H601.973V68.3292H605.872V67.2258Z" fill="#FFC81A"/>
<path d="M617.866 72.9363H603.283V74.0397H617.866V72.9363Z" fill="#FFC81A"/>
<path d="M603.792 38.6742H578.914V39.7776H603.792V38.6742Z" fill="#FFC81A"/>
<path d="M605.872 78.8114H601.973V79.9148H605.872V78.8114Z" fill="#FFC81A"/>
<path d="M598.366 27.2936V27.0436H598.116V27.2936H598.366ZM639.251 27.2936H639.501V27.0436H639.251V27.2936ZM639.251 28.397V28.647H639.501V28.397H639.251ZM598.366 28.397H598.116V28.647H598.366V28.397ZM603.114 33.1184V32.8684H602.864V33.1184H603.114ZM611.253 33.1184H611.503V32.8684H611.253V33.1184ZM611.253 34.2218V34.4718H611.503V34.2218H611.253ZM603.114 34.2218H602.864V34.4718H603.114V34.2218ZM578.914 50.0948V49.8448H578.664V50.0948H578.914ZM606.39 50.0948H606.64V49.8448H606.39V50.0948ZM606.39 51.1982V51.4482H606.64V51.1982H606.39ZM578.914 51.1982H578.664V51.4482H578.914V51.1982ZM622.105 55.8052V55.5552H621.855V55.8052H622.105ZM630.413 55.8052H630.663V55.5552H630.413V55.8052ZM630.413 56.9086V57.1586H630.663V56.9086H630.413ZM622.105 56.9086H621.855V57.1586H622.105V56.9086ZM583.423 61.5039V61.2539H583.173V61.5039H583.423ZM594.127 61.5039H594.377V61.2539H594.127V61.5039ZM594.127 62.6073V62.8573H594.377V62.6073H594.127ZM583.423 62.6073H583.173V62.8573H583.423V62.6073ZM601.973 67.2258V66.9758H601.723V67.2258H601.973ZM605.872 67.2258H606.122V66.9758H605.872V67.2258ZM605.872 68.3292V68.5792H606.122V68.3292H605.872ZM601.973 68.3292H601.723V68.5792H601.973V68.3292ZM603.283 72.9363V72.6863H603.033V72.9363H603.283ZM617.866 72.9363H618.116V72.6863H617.866V72.9363ZM617.866 74.0397V74.2897H618.116V74.0397H617.866ZM603.283 74.0397H603.033V74.2897H603.283V74.0397ZM578.914 38.6742V38.4242H578.664V38.6742H578.914ZM603.792 38.6742H604.042V38.4242H603.792V38.6742ZM603.792 39.7776V40.0276H604.042V39.7776H603.792ZM578.914 39.7776H578.664V40.0276H578.914V39.7776ZM601.973 78.8114V78.5614H601.723V78.8114H601.973ZM605.872 78.8114H606.122V78.5614H605.872V78.8114ZM605.872 79.9148V80.1648H606.122V79.9148H605.872ZM601.973 79.9148H601.723V80.1648H601.973V79.9148ZM598.366 27.5436H639.251V27.0436H598.366V27.5436ZM639.001 27.2936V28.397H639.501V27.2936H639.001ZM639.251 28.147H598.366V28.647H639.251V28.147ZM598.616 28.397V27.2936H598.116V28.397H598.616ZM603.114 33.3684H611.253V32.8684H603.114V33.3684ZM611.003 33.1184V34.2218H611.503V33.1184H611.003ZM611.253 33.9718H603.114V34.4718H611.253V33.9718ZM603.364 34.2218V33.1184H602.864V34.2218H603.364ZM578.914 50.3448H606.39V49.8448H578.914V50.3448ZM606.14 50.0948V51.1982H606.64V50.0948H606.14ZM606.39 50.9482H578.914V51.4482H606.39V50.9482ZM579.164 51.1982V50.0948H578.664V51.1982H579.164ZM622.105 56.0552H630.413V55.5552H622.105V56.0552ZM630.163 55.8052V56.9086H630.663V55.8052H630.163ZM630.413 56.6586H622.105V57.1586H630.413V56.6586ZM622.355 56.9086V55.8052H621.855V56.9086H622.355ZM583.423 61.7539H594.127V61.2539H583.423V61.7539ZM593.877 61.5039V62.6073H594.377V61.5039H593.877ZM594.127 62.3573H583.423V62.8573H594.127V62.3573ZM583.673 62.6073V61.5039H583.173V62.6073H583.673ZM601.973 67.4758H605.872V66.9758H601.973V67.4758ZM605.622 67.2258V68.3292H606.122V67.2258H605.622ZM605.872 68.0792H601.973V68.5792H605.872V68.0792ZM602.223 68.3292V67.2258H601.723V68.3292H602.223ZM603.283 73.1863H617.866V72.6863H603.283V73.1863ZM617.616 72.9363V74.0397H618.116V72.9363H617.616ZM617.866 73.7897H603.283V74.2897H617.866V73.7897ZM603.533 74.0397V72.9363H603.033V74.0397H603.533ZM578.914 38.9242H603.792V38.4242H578.914V38.9242ZM603.542 38.6742V39.7776H604.042V38.6742H603.542ZM603.792 39.5276H578.914V40.0276H603.792V39.5276ZM579.164 39.7776V38.6742H578.664V39.7776H579.164ZM601.973 79.0614H605.872V78.5614H601.973V79.0614ZM605.622 78.8114V79.9148H606.122V78.8114H605.622ZM605.872 79.6648H601.973V80.1648H605.872V79.6648ZM602.223 79.9148V78.8114H601.723V79.9148H602.223Z" fill="#FFC81A"/>
<path d="M594.653 28.3969H577.914V27.2935H594.653V28.3969ZM598.892 33.1183H583.409V34.2217H598.892V33.1183ZM647.067 33.1183H613.474V34.2217H647.067V33.1183ZM610.339 44.3844H583.639V45.4878H610.339V44.3844ZM637.23 44.3844H613.73V45.4878H637.23V44.3844ZM616.92 50.0944H608.103V51.1977H616.92V50.0944ZM618.561 55.8044H582.423V56.9078H618.561V55.8044ZM646.286 55.8044H632.326V56.9078H646.286V55.8044ZM616.357 61.5032H595.331V62.6066H616.357V61.5032ZM599.107 67.2251H583.408V68.3285H599.107V67.2251ZM629.628 67.2251H606.737V68.3285H629.628V67.2251ZM643.503 67.2251H632.003V68.3285H643.503V67.2251ZM598.891 72.9351H577.914V74.0384H598.892L598.891 72.9351ZM629.413 72.9351H620.256V74.0384H629.413V72.9351ZM599.107 78.8103H583.408V79.9137H599.107V78.8103ZM629.628 78.8103H606.737V79.9137H629.628V78.8103ZM643.503 78.8103H632.003V79.9137H643.503V78.8103Z" fill="#232326"/>
<path d="M595.778 27.2936V27.1686H595.653H578.914H578.789V27.2936V28.3968V28.5218H578.914H595.653H595.778V28.3968V27.2936ZM614.474 32.9933H614.349V33.1183V34.2218V34.3468H614.474H648.067H648.192V34.2218V33.1183H648.067V32.9933H614.474ZM600.017 33.1183V32.9933H599.892H584.409H584.284V33.1183V34.2218V34.3468H584.409H599.892H600.017V34.2218V33.1183ZM638.355 44.3844V44.2594H638.23H614.73H614.605V44.3844V45.4879V45.6129H614.73H638.23H638.355V45.4879V44.3844ZM584.639 44.2594H584.514V44.3844V45.4879V45.6129H584.639H611.339H611.464V45.4879V44.3844H611.339V44.2594H584.639ZM618.045 50.0944V49.9694H617.92H609.103H608.978V50.0944V51.1977V51.3227H609.103H617.92H618.045V51.1977V50.0944ZM647.411 55.8044V55.6794H647.286H633.326H633.201V55.8044V56.908V57.033H633.326H647.286H647.411V56.908V55.8044ZM619.686 55.8044V55.6794H619.561H583.423H583.298V55.8044V56.908V57.033H583.423H619.561H619.686V56.908V55.8044ZM596.331 61.3782H596.206V61.5032V62.6067V62.7317H596.331H617.357H617.482V62.6067V61.5032H617.357V61.3782H596.331ZM644.628 67.2251V67.1001H644.503H633.003H632.878V67.2251V68.3286V68.4536H633.003H644.503H644.628V68.3286V67.2251ZM630.753 67.2251V67.1001H630.628H607.737H607.612V67.2251V68.3286V68.4536H607.737H630.628H630.753V68.3286V67.2251ZM600.232 67.2251V67.1001H600.107H584.409H584.284V67.2251V68.3286V68.4536H584.409H600.107H600.232V68.3286V67.2251ZM630.538 72.9351V72.8101H630.413H621.257H621.132V72.9351V74.0387V74.1637H621.257H630.413H630.538V74.0387V72.9361V72.9351ZM600.017 72.9351V72.8101H599.892H578.914H578.789V72.9351V74.0387V74.1637H578.914H599.892H600.017V74.0387V72.9361V72.9351ZM644.628 78.8104V78.6854H644.503H633.003H632.878V78.8104V79.9137V80.0387H633.003H644.503H644.628V79.9137V78.8111V78.8104ZM630.753 78.8104V78.6854H630.628H607.737H607.612V78.8104V79.9137V80.0387H607.737H630.628H630.753V79.9137V78.8111V78.8104ZM600.232 78.8104V78.6854H600.107H584.409H584.284V78.8104V79.9137V80.0387H584.409H600.107H600.232V79.9137V78.8111V78.8104Z" fill="#48484D" stroke="#48484D" stroke-width="0.25"/>
</g>
<defs>
<linearGradient id="paint0_linear" x1="117.524" y1="216.979" x2="642.589" y2="216.979" gradientUnits="userSpaceOnUse">
<stop stop-color="white"/>
<stop offset="1"/>
</linearGradient>
</defs>
</svg>
